# xmcd
#
# Track frame offsets:
#	150
#	6415
#	37181
#	71220
#	107563
#	130747
#	162324
#	174283
#	198476
#	241327
#	263247
#
# Disc length: 3977 seconds
#
# Revision: 1
# Processed by: cddbd v1.5.2PL0 Copyright (c) Steve Scherf et al.
# Submitted via: audiograbber 1.83.01
#
DISCID=990f870b
DTITLE=Grateful Dead - 87-07-07 Roanoke Civic Centre VA
DYEAR=1900
DGENRE=
TTITLE0=Tuning
TTITLE1=Mississippi Half-Step
TTITLE2=Walking Blues
TTITLE3=Candyman
TTITLE4=My Brother Esau
TTITLE5=When Push Comes To Shove
TTITLE6=Me and My Uncle
TTITLE7=Mexicali Blues
TTITLE8=Bird Song
TTITLE9=Promised Land
TTITLE10=West LA Fadeaway
EXTD=
EXTT0=
EXTT1=
EXTT2=
EXTT3=
EXTT4=
EXTT5=
EXTT6=
EXTT7=
EXTT8=
EXTT9=
EXTT10=
PLAYORDER=
